<svg width="132" height="132" viewBox="0 0 132 132" fill="none" xmlns="http://www.w3.org/2000/svg">
<path d="M55 5.5H11C7.96243 5.5 5.5 7.96243 5.5 11V55C5.5 58.0376 7.96243 60.5 11 60.5H55C58.0376 60.5 60.5 58.0376 60.5 55V11C60.5 7.96243 58.0376 5.5 55 5.5Z" fill="#647F5E"/>
<path d="M55 71.5H11C7.96243 71.5 5.5 73.9624 5.5 77V121C5.5 124.038 7.96243 126.5 11 126.5H55C58.0376 126.5 60.5 124.038 60.5 121V77C60.5 73.9624 58.0376 71.5 55 71.5Z" fill="#75002F"/>
<path d="M121 71.5H77C73.9624 71.5 71.5 73.9624 71.5 77V121C71.5 124.038 73.9624 126.5 77 126.5H121C124.038 126.5 126.5 124.038 126.5 121V77C126.5 73.9624 124.038 71.5 121 71.5Z" fill="#323058"/>
</svg>
