<svg width="132" height="132" viewBox="0 0 132 132" fill="none" xmlns="http://www.w3.org/2000/svg">
<path d="M38.5476 20.2073C36.8589 20.2375 35.3378 20.6549 34.0746 21.4732C32.15 22.721 31.0414 24.8 30.7068 26.9749C30.0377 31.3252 31.9306 36.3477 35.8274 40.4611C39.7237 44.574 45.7986 47.6953 53.625 47.6953H54.2535L51.9028 42.9943C46.1809 42.5937 41.9873 40.2159 39.196 37.2696C36.1319 34.0354 34.931 30.0344 35.2932 27.6816C35.4742 26.5049 35.9125 25.8124 36.5983 25.368C37.2841 24.9235 38.4321 24.6267 40.4026 25.0261C43.7742 25.7093 49.2283 28.6221 56.4398 35.154L56.7884 34.8047H62.8232C53.7199 25.8328 46.7834 21.5846 41.3242 20.478C40.6509 20.3393 39.9678 20.2526 39.2811 20.2187C39.0334 20.207 38.7889 20.203 38.5476 20.2073ZM93.4524 20.2073C93.2111 20.2034 92.9666 20.2072 92.7189 20.2187C92.0584 20.2496 91.3757 20.336 90.676 20.478C85.2166 21.5846 78.2799 25.8328 69.177 34.8047H75.2114L75.5599 35.1537C82.7715 28.6218 88.2255 25.7093 91.5972 25.0258C93.5676 24.6262 94.7157 24.9232 95.4015 25.3677C96.0872 25.8122 96.5255 26.5047 96.7065 27.6811C97.0687 30.0339 95.8678 34.0348 92.8037 37.2691C90.0124 40.2159 85.8188 42.5934 80.0969 42.9941L77.7465 47.6953H78.375C86.2014 47.6953 92.2762 44.5742 96.1726 40.4611C100.069 36.3477 101.962 31.3252 101.293 26.9749C100.959 24.8 99.85 22.721 97.9254 21.4732C96.6622 20.6549 95.1411 20.2375 93.4524 20.2073ZM58.7116 39.4453L56.448 41.7081L59.1845 47.1797H72.8163L75.5517 41.7081L73.2889 39.4453H58.7122H58.7116ZM18.8203 51.8203V63.6797H55.4297V51.8203H18.8203ZM60.0703 51.8203V121.43H71.9297V51.8203H60.0703ZM76.5703 51.8203V63.6797H113.18V51.8203H76.5703ZM27.0703 68.3203V121.43H55.4297V68.3203H27.0703ZM76.5703 68.3203V121.43H104.93V68.3203H76.5703Z" fill="#75002F"/>
</svg>
