<svg width="132" height="132" viewBox="0 0 132 132" fill="none" xmlns="http://www.w3.org/2000/svg">
<path d="M61.765 77.847V69.388H70.235V77.847H61.765ZM39.765 77.847V69.388H48.235V77.847H39.765ZM83.765 77.847V69.388H92.235V77.847H83.765ZM61.765 99V90.541H70.235V99H61.765ZM39.765 99V90.541H48.235V99H39.765ZM83.765 99V90.541H92.235V99H83.765ZM22 115.5V27.5H40.6175V15.235H46.541V27.5H85.888V15.235H91.388V27.5H110V115.5H22ZM27.5 110H104.5V58.388H27.5V110ZM27.5 52.8825H104.5V33H27.5V52.8825Z" fill="#75002F"/>
</svg>
