<svg width="139" height="139" viewBox="0 0 139 139" fill="none" xmlns="http://www.w3.org/2000/svg">
<g clip-path="url(#clip0_14_41)">
<path d="M70.043 0.0977685C70.043 0.304097 70.2819 0.347534 70.4556 0.173784C70.6185 0.0108935 70.6077 3.40939e-05 70.3362 3.40939e-05C70.1733 3.40939e-05 70.043 0.0434716 70.043 0.0977685Z" fill="#647F5E"/>
<path d="M69.4349 0.336653C69.348 0.488684 69.6629 0.803606 69.815 0.716731C69.8801 0.673293 69.9344 0.542981 69.9344 0.423528C69.9344 0.195481 69.5652 0.130324 69.4349 0.336653Z" fill="#647F5E"/>
<path d="M70.043 1.07511C70.043 1.35745 70.2276 1.46604 70.423 1.30315C70.6185 1.14026 70.5099 0.868779 70.2493 0.868779C70.119 0.868779 70.043 0.944794 70.043 1.07511Z" fill="#647F5E"/>
<path d="M69.4349 1.42259C69.348 1.57462 69.6629 1.88954 69.815 1.80267C69.8801 1.75923 69.9344 1.62892 69.9344 1.50947C69.9344 1.28142 69.5652 1.21626 69.4349 1.42259Z" fill="#647F5E"/>
<path d="M70.043 2.16104C70.043 2.44339 70.2276 2.55198 70.423 2.38909C70.6185 2.2262 70.5099 1.95472 70.2493 1.95472C70.119 1.95472 70.043 2.03073 70.043 2.16104Z" fill="#647F5E"/>
<path d="M69.4457 2.4977C69.348 2.66059 69.5977 2.93207 69.7823 2.85606C70.0213 2.76918 69.9778 2.3891 69.728 2.3891C69.6086 2.3891 69.4783 2.4434 69.4457 2.4977Z" fill="#647F5E"/>
<path d="M70.043 3.24698C70.043 3.52933 70.2276 3.63792 70.423 3.47503C70.6185 3.31214 70.5099 3.04065 70.2493 3.04065C70.119 3.04065 70.043 3.11667 70.043 3.24698Z" fill="#647F5E"/>
<path d="M69.4457 3.58364C69.348 3.74653 69.4892 3.90942 69.7281 3.90942C69.8584 3.90942 69.9344 3.83341 69.9344 3.69224C69.9344 3.46419 69.5761 3.37731 69.4457 3.58364Z" fill="#647F5E"/>
<path d="M70.043 4.33293C70.043 4.53926 70.2927 4.71301 70.4122 4.59356C70.5642 4.43067 70.4665 4.12661 70.2602 4.12661C70.119 4.12661 70.043 4.20262 70.043 4.33293Z" fill="#647F5E"/>
<path d="M69.5 4.61528C69.3371 4.81075 69.4457 4.99536 69.7281 4.99536C69.8584 4.99536 69.9344 4.91935 69.9344 4.78903C69.9344 4.52841 69.6629 4.41981 69.5 4.61528Z" fill="#647F5E"/>
<path d="M70.043 5.42972C70.043 5.5709 70.119 5.64691 70.2602 5.64691C70.4013 5.64691 70.4773 5.5709 70.4773 5.42972C70.4773 5.28855 70.4013 5.21254 70.2602 5.21254C70.119 5.21254 70.043 5.28855 70.043 5.42972Z" fill="#647F5E"/>
<path d="M69.5109 5.69036C69.3371 5.89669 69.4457 6.0813 69.728 6.0813C69.8909 6.0813 69.9452 6.01614 69.9127 5.84239C69.8692 5.54919 69.6846 5.48403 69.5109 5.69036Z" fill="#647F5E"/>
<path d="M70.119 6.25504C69.9452 6.42879 70.043 6.73285 70.271 6.73285C70.4339 6.73285 70.4882 6.67855 70.4556 6.49394C70.4231 6.25504 70.2493 6.13558 70.119 6.25504Z" fill="#647F5E"/>
<path d="M69.5109 6.7763C69.3371 6.98263 69.4457 7.16724 69.728 7.16724C69.8909 7.16724 69.9452 7.10208 69.9127 6.92833C69.8692 6.63513 69.6846 6.56997 69.5109 6.7763Z" fill="#647F5E"/>
<path d="M70.119 7.35183C69.9561 7.50386 70.043 7.81879 70.2493 7.81879C70.4991 7.81879 70.6185 7.56902 70.4448 7.39527C70.3036 7.2541 70.2167 7.24324 70.119 7.35183Z" fill="#647F5E"/>
<path d="M69.5217 7.85137C69.3588 8.03598 69.5326 8.30746 69.7715 8.20973C69.967 8.14457 69.9561 7.80793 69.7606 7.74278C69.6955 7.72106 69.5869 7.7645 69.5217 7.85137Z" fill="#647F5E"/>
<path d="M70.119 8.43777C69.9561 8.5898 70.043 8.90472 70.2493 8.90472C70.4991 8.90472 70.6185 8.65496 70.4448 8.48121C70.3036 8.34004 70.2167 8.32918 70.119 8.43777Z" fill="#647F5E"/>
<path d="M69.5217 8.93731C69.3588 9.12192 69.5326 9.3934 69.7715 9.29567C69.967 9.23051 69.9561 8.89387 69.7606 8.82871C69.6955 8.807 69.5869 8.85043 69.5217 8.93731Z" fill="#647F5E"/>
<path d="M70.119 9.52371C69.9561 9.67574 70.043 9.99066 70.2493 9.99066C70.4991 9.99066 70.6185 9.7409 70.4448 9.56715C70.3036 9.42597 70.2167 9.41511 70.119 9.52371Z" fill="#647F5E"/>
<path d="M69.4674 10.0233C69.4348 10.1101 69.4457 10.2404 69.5 10.3165C69.6195 10.5119 69.9561 10.3599 69.9127 10.1318C69.8692 9.89294 69.5434 9.81692 69.4674 10.0233Z" fill="#647F5E"/>
<path d="M70.0864 10.6965C70.0104 10.892 70.119 11.0766 70.3145 11.0766C70.5099 11.0766 70.5968 10.8051 70.4448 10.6531C70.2819 10.4902 70.1516 10.5011 70.0864 10.6965Z" fill="#647F5E"/>
<path d="M69.4675 11.12C69.3806 11.3372 69.6846 11.587 69.8475 11.4241C69.9996 11.2721 69.8801 10.968 69.6738 10.968C69.5978 10.968 69.5 11.0332 69.4675 11.12Z" fill="#647F5E"/>
<path d="M70.0756 11.7933C70.043 11.8802 70.0647 12.0105 70.1299 12.0756C70.2928 12.2385 70.5968 11.9888 70.51 11.7716C70.4339 11.5652 70.1625 11.5761 70.0756 11.7933Z" fill="#647F5E"/>
<path d="M69.4675 12.206C69.3806 12.4232 69.6846 12.6729 69.8475 12.51C69.9996 12.358 69.8801 12.0539 69.6738 12.0539C69.5978 12.0539 69.5 12.1191 69.4675 12.206Z" fill="#647F5E"/>
<path d="M70.0756 12.8792C70.043 12.9661 70.0647 13.0964 70.1299 13.1616C70.2928 13.3245 70.5968 13.0747 70.51 12.8575C70.4339 12.6512 70.1625 12.662 70.0756 12.8792Z" fill="#647F5E"/>
<path d="M69.4349 13.2593C69.348 13.4114 69.6629 13.7263 69.815 13.6394C70.0213 13.5091 69.9561 13.1399 69.7281 13.1399C69.6086 13.1399 69.4783 13.1942 69.4349 13.2593Z" fill="#647F5E"/>
<path d="M70.043 13.9978C70.043 14.2801 70.2276 14.3887 70.423 14.2258C70.6185 14.0629 70.5099 13.7914 70.2493 13.7914C70.119 13.7914 70.043 13.8675 70.043 13.9978Z" fill="#647F5E"/>
<path d="M69.4349 14.3453C69.348 14.4973 69.6629 14.8122 69.815 14.7253C69.8801 14.6819 69.9344 14.5516 69.9344 14.4321C69.9344 14.2041 69.5652 14.1389 69.4349 14.3453Z" fill="#647F5E"/>
<path d="M70.043 15.0837C70.043 15.3661 70.2276 15.4747 70.423 15.3118C70.6185 15.1489 70.5099 14.8774 70.2493 14.8774C70.119 14.8774 70.043 14.9534 70.043 15.0837Z" fill="#647F5E"/>
<path d="M69.4457 15.4204C69.348 15.5833 69.5977 15.8547 69.7823 15.7787C70.0213 15.6919 69.9778 15.3118 69.728 15.3118C69.6086 15.3118 69.4783 15.3661 69.4457 15.4204Z" fill="#647F5E"/>
<path d="M70.043 16.1697C70.043 16.452 70.2276 16.5606 70.423 16.3977C70.6185 16.2348 70.5099 15.9633 70.2493 15.9633C70.119 15.9633 70.043 16.0393 70.043 16.1697Z" fill="#647F5E"/>
<path d="M69.4457 16.5062C69.348 16.6691 69.4892 16.832 69.7281 16.832C69.8584 16.832 69.9344 16.756 69.9344 16.6148C69.9344 16.3868 69.5761 16.2999 69.4457 16.5062Z" fill="#647F5E"/>
<path d="M70.043 17.2556C70.043 17.4619 70.2927 17.6357 70.4122 17.5162C70.5642 17.3533 70.4665 17.0493 70.2602 17.0493C70.119 17.0493 70.043 17.1253 70.043 17.2556Z" fill="#647F5E"/>
<path d="M69.5 17.5379C69.3371 17.7334 69.4457 17.918 69.7281 17.918C69.8584 17.918 69.9344 17.842 69.9344 17.7116C69.9344 17.451 69.6629 17.3424 69.5 17.5379Z" fill="#647F5E"/>
<path d="M70.043 18.3524C70.043 18.4936 70.119 18.5696 70.2602 18.5696C70.4013 18.5696 70.4773 18.4936 70.4773 18.3524C70.4773 18.2112 70.4013 18.1352 70.2602 18.1352C70.119 18.1352 70.043 18.2112 70.043 18.3524Z" fill="#647F5E"/>
<path d="M69.5109 18.613C69.3371 18.8193 69.4457 19.0039 69.728 19.0039C69.8909 19.0039 69.9452 18.9387 69.9127 18.765C69.8692 18.4718 69.6846 18.4066 69.5109 18.613Z" fill="#647F5E"/>
<path d="M70.1841 19.1886C69.9452 19.2754 70.0213 19.6555 70.2602 19.6555C70.4013 19.6555 70.4773 19.5795 70.4773 19.4492C70.4773 19.2103 70.3796 19.1234 70.1841 19.1886Z" fill="#647F5E"/>
<path d="M69.5109 19.6989C69.3371 19.9052 69.4457 20.0898 69.728 20.0898C69.8909 20.0898 69.9452 20.0247 69.9127 19.8509C69.8692 19.5577 69.6846 19.4926 69.5109 19.6989Z" fill="#647F5E"/>
<path d="M70.119 20.2745C69.9561 20.4265 70.043 20.7415 70.2493 20.7415C70.4991 20.7415 70.6185 20.4917 70.4448 20.3179C70.3036 20.1768 70.2167 20.1659 70.119 20.2745Z" fill="#647F5E"/>
<path d="M69.5217 20.774C69.3588 20.9586 69.5326 21.2301 69.7715 21.1323C69.967 21.0672 69.9561 20.7305 69.7606 20.6654C69.6955 20.6437 69.5869 20.6871 69.5217 20.774Z" fill="#647F5E"/>
<path d="M70.119 21.3604C69.9561 21.5125 70.043 21.8274 70.2493 21.8274C70.4991 21.8274 70.6185 21.5776 70.4448 21.4039C70.3036 21.2627 70.2167 21.2518 70.119 21.3604Z" fill="#647F5E"/>
<path d="M69.5217 21.8599C69.3588 22.0445 69.5326 22.316 69.7715 22.2183C69.967 22.1531 69.9561 21.8165 69.7606 21.7513C69.6955 21.7296 69.5869 21.773 69.5217 21.8599Z" fill="#647F5E"/>
<path d="M70.119 22.4464C69.9561 22.5984 70.043 22.9133 70.2493 22.9133C70.4991 22.9133 70.6185 22.6636 70.4448 22.4898C70.3036 22.3486 70.2167 22.3378 70.119 22.4464Z" fill="#647F5E"/>
<path d="M69.4674 22.9459C69.4348 23.0328 69.4457 23.1631 69.5 23.2391C69.6195 23.4346 69.9561 23.2826 69.9127 23.0545C69.8692 22.8156 69.5434 22.7396 69.4674 22.9459Z" fill="#647F5E"/>
<path d="M70.0864 23.6192C70.0104 23.8147 70.119 23.9993 70.3145 23.9993C70.5099 23.9993 70.5968 23.7278 70.4448 23.5758C70.2819 23.4129 70.1516 23.4237 70.0864 23.6192Z" fill="#647F5E"/>
<path d="M69.4675 24.0427C69.3806 24.2599 69.6846 24.5096 69.8475 24.3468C69.9996 24.1947 69.8801 23.8907 69.6738 23.8907C69.5978 23.8907 69.5 23.9558 69.4675 24.0427Z" fill="#647F5E"/>
<path d="M70.0756 24.716C69.9778 24.9657 70.2167 25.1503 70.4231 24.9766C70.5534 24.868 70.5642 24.8028 70.4665 24.6943C70.3036 24.4988 70.1624 24.4988 70.0756 24.716Z" fill="#647F5E"/>
<path d="M69.4675 25.1286C69.3806 25.3458 69.6846 25.5956 69.8475 25.4327C69.9996 25.2807 69.8801 24.9766 69.6738 24.9766C69.5978 24.9766 69.5 25.0418 69.4675 25.1286Z" fill="#647F5E"/>
<path d="M70.0756 25.8019C70.043 25.8888 70.0647 26.0191 70.1299 26.0842C70.2928 26.2471 70.5968 25.9974 70.51 25.7802C70.4339 25.5739 70.1625 25.5847 70.0756 25.8019Z" fill="#647F5E"/>
<path d="M69.4348 26.182C69.3262 26.3666 69.6846 26.6815 69.8366 26.5295C69.9126 26.4535 69.9344 26.3232 69.9018 26.2363C69.8258 26.0408 69.5434 26.0082 69.4348 26.182Z" fill="#647F5E"/>
<path d="M70.043 26.9204C70.043 27.2027 70.2276 27.3113 70.423 27.1484C70.6185 26.9855 70.5099 26.7141 70.2493 26.7141C70.119 26.7141 70.043 26.7901 70.043 26.9204Z" fill="#647F5E"/>
<path d="M69.4349 27.2679C69.348 27.42 69.6629 27.7349 69.815 27.648C69.8801 27.6046 69.9344 27.4743 69.9344 27.3548C69.9344 27.1268 69.5652 27.0616 69.4349 27.2679Z" fill="#647F5E"/>
<path d="M70.043 28.0063C70.043 28.2887 70.2276 28.3973 70.423 28.2344C70.6185 28.0715 70.5099 27.8 70.2493 27.8C70.119 27.8 70.043 27.876 70.043 28.0063Z" fill="#647F5E"/>
<path d="M69.4457 28.343C69.348 28.5059 69.5977 28.7773 69.7823 28.7013C70.0213 28.6145 69.9778 28.2344 69.728 28.2344C69.6086 28.2344 69.4783 28.2887 69.4457 28.343Z" fill="#647F5E"/>
<path d="M70.043 29.0923C70.043 29.3747 70.2276 29.4833 70.423 29.3204C70.6185 29.1575 70.5099 28.886 70.2493 28.886C70.119 28.886 70.043 28.962 70.043 29.0923Z" fill="#647F5E"/>
<path d="M69.4457 29.429C69.348 29.5919 69.4892 29.7548 69.7281 29.7548C69.8584 29.7548 69.9344 29.6787 69.9344 29.5376C69.9344 29.3095 69.5761 29.2227 69.4457 29.429Z" fill="#647F5E"/>
<path d="M70.043 30.1782C70.043 30.3845 70.2927 30.5583 70.4122 30.4388C70.5642 30.2759 70.4665 29.9719 70.2602 29.9719C70.119 29.9719 70.043 30.0479 70.043 30.1782Z" fill="#647F5E"/>
<path d="M69.5 30.4606C69.3371 30.656 69.4457 30.8406 69.7281 30.8406C69.8584 30.8406 69.9344 30.7646 69.9344 30.6343C69.9344 30.3737 69.6629 30.2651 69.5 30.4606Z" fill="#647F5E"/>
<path d="M70.043 31.275C70.043 31.4162 70.119 31.4922 70.2602 31.4922C70.4013 31.4922 70.4773 31.4162 70.4773 31.275C70.4773 31.1338 70.4013 31.0578 70.2602 31.0578C70.119 31.0578 70.043 31.1338 70.043 31.275Z" fill="#647F5E"/>
<path d="M69.5109 31.5356C69.3371 31.742 69.4457 31.9266 69.728 31.9266C69.8909 31.9266 69.9452 31.8614 69.9127 31.6877C69.8692 31.3945 69.6846 31.3293 69.5109 31.5356Z" fill="#647F5E"/>
<path d="M70.1841 32.1112C69.9452 32.198 70.0213 32.5781 70.2602 32.5781C70.4013 32.5781 70.4773 32.5021 70.4773 32.3718C70.4773 32.1329 70.3796 32.046 70.1841 32.1112Z" fill="#647F5E"/>
<path d="M69.5109 32.6216C69.3371 32.828 69.4457 33.0126 69.728 33.0126C69.8909 33.0126 69.9452 32.9474 69.9127 32.7737C69.8692 32.4805 69.6846 32.4153 69.5109 32.6216Z" fill="#647F5E"/>
<path d="M70.119 33.1971C69.9561 33.3491 70.043 33.6641 70.2493 33.6641C70.4991 33.6641 70.6185 33.4143 70.4448 33.2405C70.3036 33.0994 70.2167 33.0885 70.119 33.1971Z" fill="#647F5E"/>
<path d="M69.5217 33.6966C69.3588 33.8813 69.5326 34.1527 69.7715 34.055C69.967 33.9898 69.9561 33.6532 69.7606 33.5881C69.6955 33.5663 69.5869 33.6098 69.5217 33.6966Z" fill="#647F5E"/>
<path d="M70.119 34.283C69.9561 34.4351 70.043 34.75 70.2493 34.75C70.4991 34.75 70.6185 34.5002 70.4448 34.3265C70.3036 34.1853 70.2167 34.1745 70.119 34.283Z" fill="#647F5E"/>
<path d="M69.5217 34.7826C69.3588 34.9673 69.5326 35.2387 69.7715 35.141C69.967 35.0758 69.9561 34.7392 69.7606 34.6741C69.6955 34.6523 69.5869 34.6958 69.5217 34.7826Z" fill="#647F5E"/>
<path d="M70.119 35.369C69.9561 35.521 70.043 35.8359 70.2493 35.8359C70.4991 35.8359 70.6185 35.5862 70.4448 35.4124C70.3036 35.2712 70.2167 35.2604 70.119 35.369Z" fill="#647F5E"/>
<path d="M69.4674 35.8685C69.4348 35.9554 69.4457 36.0857 69.5 36.1617C69.6195 36.3572 69.9561 36.2052 69.9127 35.9771C69.8692 35.7382 69.5434 35.6622 69.4674 35.8685Z" fill="#647F5E"/>
<path d="M70.0864 36.5418C70.0104 36.7373 70.119 36.9219 70.3145 36.9219C70.5099 36.9219 70.5968 36.6504 70.4448 36.4984C70.2819 36.3355 70.1516 36.3463 70.0864 36.5418Z" fill="#647F5E"/>
<path d="M69.4674 36.9545C69.4348 37.0413 69.4457 37.1717 69.5 37.2477C69.6195 37.4431 69.9561 37.2911 69.9127 37.0631C69.8692 36.8242 69.5434 36.7481 69.4674 36.9545Z" fill="#647F5E"/>
<path d="M70.0756 37.6386C69.9778 37.8884 70.2167 38.073 70.4231 37.8993C70.5534 37.7907 70.5642 37.7255 70.4665 37.6169C70.3036 37.4215 70.1624 37.4215 70.0756 37.6386Z" fill="#647F5E"/>
<path d="M69.4675 38.0513C69.3806 38.2685 69.6846 38.5183 69.8475 38.3554C69.9996 38.2033 69.8801 37.8993 69.6738 37.8993C69.5978 37.8993 69.5 37.9644 69.4675 38.0513Z" fill="#647F5E"/>
<path d="M80.8589 38.6594C79.773 39.1155 79.0128 39.6585 77.9052 40.7661C75.451 43.2203 73.8655 45.8157 71.7914 50.7133C70.4882 53.7974 70.5642 53.6453 70.2928 53.6453C70.119 53.6453 70.043 53.7105 70.043 53.8625C70.043 53.982 70.119 54.1123 70.195 54.1449C70.4231 54.2317 69.967 55.1656 69.7064 55.1656C69.4131 55.1656 69.348 55.372 69.5543 55.6C69.7172 55.7846 69.7172 55.8281 69.5652 56.1321C69.4674 56.3059 69.3914 56.5339 69.3914 56.6208C69.3914 56.9792 69.1851 56.8814 69.1199 56.5014C68.9462 55.3937 68.1426 52.049 67.806 50.9848C66.416 46.6736 63.864 44.0999 60.0524 43.1769C57.8588 42.6556 56.8163 42.5688 55.5674 42.8511C53.0155 43.4158 51.6906 45.099 51.6906 47.7921C51.6906 49.8554 52.4942 52.3205 53.6996 53.9603C54.7313 55.372 56.9249 57.0552 59.6723 58.5321C60.6605 59.0642 60.8885 59.2271 60.4867 59.1402C60.3347 59.1076 59.7809 58.9773 59.2379 58.847C55.3177 57.9456 50.4527 57.1312 48.5088 57.0443C47.4881 56.99 47.2709 57.0117 46.7171 57.2289C46.3153 57.381 45.9352 57.6416 45.642 57.9565L45.175 58.4452V59.3574C45.175 60.4542 45.4031 61.0406 46.0655 61.627C46.5433 62.0613 46.6736 62.0722 46.9125 61.6487C47.0537 61.3881 47.0537 61.2903 46.8799 60.6822C46.5542 59.5637 46.5542 59.466 46.7713 59.2813C47.1514 58.9447 47.6944 58.8578 49.345 58.8578C52.7657 58.8578 56.686 59.2488 59.7266 59.8895C61.5184 60.2695 64.635 61.1166 64.9499 61.3012C65.0042 61.3446 64.9499 61.5618 64.8305 61.7899C64.4939 62.4414 64.5264 62.5392 65.0803 62.4414C65.33 62.3871 66.0033 62.3328 66.568 62.3111L67.5996 62.2785L67.6322 65.2649C67.6431 66.9046 67.6322 68.3163 67.5996 68.4032C67.5562 68.5118 66.8286 67.8603 65.2649 66.2965C64.016 65.0477 62.9735 64.0486 62.9518 64.0703C62.9301 64.1029 62.4849 64.6567 61.9528 65.2974L60.9971 66.4811L64.3201 69.8041L67.6539 73.1379V78.1658C67.6539 81.391 67.6105 83.1828 67.5453 83.1611C67.491 83.1394 66.4811 82.1946 65.3083 81.0653C64.1355 79.925 63.1038 78.9911 63.017 78.9694C62.941 78.9477 62.3654 79.2083 61.7356 79.5449L60.5953 80.1531V83.248C60.5953 84.9421 60.5628 86.3321 60.5085 86.3321C60.4324 86.3321 57.4896 83.3783 54.2643 80.0771L53.0915 78.8717V74.3216C53.1024 71.8239 53.0589 69.7063 53.0155 69.6303C52.9503 69.5326 52.5703 69.5 51.5169 69.5217L50.116 69.5543L50.0835 72.6818C50.0617 75.2989 50.0292 75.8093 49.9097 75.7767C49.8228 75.755 48.7478 74.7885 47.5098 73.6266C46.2718 72.4646 45.1967 71.4981 45.1316 71.4764C45.0664 71.4656 44.5452 71.9217 43.9805 72.4863L42.9488 73.5288L44.0348 74.5822C44.6321 75.1578 45.6746 76.1677 46.3478 76.8192C47.0103 77.4708 47.5641 78.0463 47.5641 78.0898C47.5641 78.1441 46.2067 78.1984 44.556 78.2092L41.5371 78.2418L41.5046 79.5884C41.4828 80.3268 41.5154 80.9784 41.5697 81.0327C41.624 81.087 43.557 81.1304 46.1741 81.1196L50.6807 81.1087L54.3621 84.7031C56.3928 86.6796 58.0542 88.3519 58.076 88.4279C58.0977 88.5256 57.3375 88.5582 54.9376 88.5582H51.7667L51.3431 89.6985C50.7024 91.4794 50.7024 91.4034 51.4409 92.0767C52.3531 92.9237 55.0571 95.5625 55.0571 95.6168C55.0571 95.6494 52.7114 95.6711 49.8554 95.6711H44.6538L41.4068 92.359C39.6259 90.5346 38.1164 89.0578 38.0513 89.0686C37.9535 89.0903 36.7916 90.4478 36.1835 91.2296C36.0749 91.3817 36.3463 91.6749 38.1924 93.4015C39.3761 94.4983 40.3752 95.4431 40.4186 95.5082C40.4729 95.5842 39.4087 95.6385 37.2694 95.6711L34.0442 95.7254L34.0116 97.1589L33.979 98.6031H37.1282C38.8549 98.6031 40.2992 98.6466 40.3317 98.7009C40.3643 98.7552 40.3209 98.8638 40.2231 98.9398C40.1254 99.0158 39.1481 100.047 38.0513 101.231L36.0531 103.37L37.0631 104.359L38.0621 105.347L41.3851 101.97L44.6972 98.6031H49.8771C52.7223 98.6031 55.0571 98.6466 55.0571 98.69C55.0571 98.7443 54.1014 99.7868 52.9395 101.025C51.7775 102.263 50.8219 103.327 50.8219 103.403C50.8219 103.468 51.0934 104.022 51.43 104.641L52.0273 105.77H55.0679C56.7294 105.77 58.0977 105.803 58.0977 105.857C58.0977 105.901 56.4471 107.584 54.4272 109.604L50.7676 113.263H46.2501C42.8946 113.263 41.7109 113.296 41.6131 113.394C41.4285 113.578 41.4285 115.88 41.6131 116.065C41.7109 116.163 42.5796 116.195 44.871 116.195C46.6953 116.195 47.9985 116.239 47.9985 116.293C47.9985 116.347 47.955 116.413 47.9007 116.434C47.7378 116.499 43.0031 121.017 43.0249 121.093C43.0466 121.125 43.5135 121.582 44.0674 122.114L45.0773 123.069L45.4465 122.754C45.642 122.581 46.7279 121.582 47.8356 120.539C48.9541 119.497 49.9097 118.628 49.964 118.606C50.0183 118.584 50.0617 119.79 50.0617 121.506V124.448H51.4626H52.8526L52.9286 123.786C52.9612 123.417 52.9938 121.397 52.9938 119.301V115.5L56.5448 111.938C58.4995 109.984 60.1392 108.377 60.1827 108.377C60.237 108.377 60.2696 109.712 60.2696 111.341V114.317L61.627 114.881L62.9844 115.457L65.2323 113.383C66.4703 112.243 67.5236 111.309 67.5671 111.309C67.6213 111.309 67.6539 113.633 67.6539 116.467V121.614L65.3517 123.873C64.0812 125.122 62.5717 126.577 62.0071 127.131L60.9863 128.13L61.9853 129.14L62.9844 130.15L65.2431 127.891C66.4811 126.653 67.5345 125.665 67.5779 125.708C67.6213 125.752 67.6539 127.25 67.6539 129.031V132.267H69.1742H70.6946V129.118C70.6946 127.38 70.7271 125.969 70.7597 125.969C70.7923 125.969 71.7696 126.881 72.9424 127.999C74.1044 129.129 75.0817 130.052 75.1252 130.074C75.1686 130.084 75.6464 129.661 76.1785 129.118L77.1559 128.141L73.9198 124.905L70.6946 121.679V116.489C70.6946 113.307 70.738 111.309 70.7923 111.33C70.8466 111.341 71.8565 112.286 73.0185 113.404L75.1469 115.457L76.5043 114.881L77.8617 114.317V111.233C77.8617 109.452 77.9052 108.159 77.9595 108.159C78.0138 108.159 79.6644 109.799 81.6408 111.808L85.2135 115.446L85.2787 117.965C85.3221 119.355 85.3547 121.375 85.3547 122.472V124.459L86.799 124.427L88.2324 124.394L88.265 121.375C88.2759 119.714 88.3302 118.367 88.3736 118.389C88.4279 118.411 89.2858 119.323 90.2849 120.43C91.2948 121.538 92.2504 122.581 92.4242 122.754L92.7282 123.069L93.7599 122.125C94.3354 121.603 94.8024 121.115 94.8024 121.049C94.7915 120.973 93.7924 119.866 92.5762 118.584L90.35 116.25L93.5318 116.195L96.7028 116.141V114.729V113.318L92.0767 113.263L87.4397 113.209L84.8552 110.711C83.4217 109.343 81.7711 107.747 81.1739 107.16L80.0879 106.096H83.1611H86.2343L86.8967 104.728L87.5483 103.36L87.0705 102.849C86.8099 102.578 86.2235 101.959 85.7782 101.481C85.3439 101.003 84.5728 100.199 84.0733 99.6782C83.5846 99.1678 83.2154 98.7117 83.2589 98.6792C83.2914 98.6357 85.6371 98.6031 88.4605 98.6031H93.5861L96.8222 101.97C98.5923 103.816 100.069 105.336 100.091 105.336C100.178 105.336 102.187 103.436 102.187 103.36C102.187 103.316 101.209 102.284 100.015 101.068C98.8203 99.8411 97.843 98.7878 97.843 98.7226C97.843 98.6357 98.7552 98.6031 101.047 98.6031H104.25V97.1371V95.6711H101.047C99.2873 95.6711 97.843 95.6385 97.843 95.5951C97.843 95.5517 98.8312 94.52 100.037 93.3146L102.241 91.1102L101.209 90.0785C100.645 89.5139 100.145 89.0469 100.102 89.0469C100.058 89.0469 99.2764 89.8179 98.3642 90.7518C97.4521 91.6966 95.9969 93.1843 95.1282 94.0748L93.5535 95.6711L88.3628 95.6494L83.1828 95.6168L85.3656 93.3581C86.5601 92.1201 87.5266 91.0667 87.5049 91.0233C87.1356 90.2197 86.3864 88.7971 86.256 88.6668C86.1149 88.5148 85.6914 88.4931 83.1937 88.5039C81.6082 88.5148 80.2617 88.5148 80.1965 88.5039C80.1422 88.5039 81.7711 86.8207 83.8344 84.7574L87.5809 81.011L92.1418 80.9892L96.7028 80.9567L96.7353 79.5667L96.7679 78.1875H93.6078C91.1645 78.1875 90.4586 78.1549 90.4586 78.0463C90.4586 77.9812 91.436 76.9713 92.6305 75.8202C93.825 74.6582 94.8024 73.6592 94.8024 73.5831C94.8024 73.518 94.3354 72.9967 93.7707 72.4321L92.7391 71.4004L90.5346 73.6049C89.3292 74.8103 88.2759 75.7985 88.2107 75.7985C88.1021 75.7985 88.0696 75.0492 88.0478 72.671L88.0153 69.5543L86.5818 69.5217L85.1375 69.4892V74.1478V78.8065L83.0525 81.0218C78.7414 85.5828 78.0681 86.2778 77.9595 86.3103C77.9052 86.3321 77.8617 85.1484 77.8617 83.2589V80.1639L76.6021 79.5558C75.9179 79.2192 75.2881 78.9477 75.2229 78.9477C75.1469 78.9477 74.137 79.9033 72.975 81.0653C71.8131 82.2272 70.8249 83.1828 70.7814 83.1828C70.7271 83.1828 70.6946 80.9024 70.6946 78.1224V73.0728L73.9306 69.7063C75.7007 67.8494 77.1776 66.2856 77.1993 66.2205C77.2319 66.1228 75.2772 64.0703 75.1469 64.0703C75.1143 64.0703 74.137 65.1237 72.975 66.4051C71.8131 67.6865 70.8249 68.7399 70.7814 68.7399C70.738 68.7399 70.6946 67.263 70.6946 65.4712V62.2025L71.5416 62.2785C72.3235 62.3437 72.7904 62.4306 73.3877 62.6043C73.594 62.6695 73.6266 62.6478 73.6266 62.4088C73.6266 62.2568 73.5071 61.9202 73.3551 61.6704C73.051 61.1274 73.0185 60.9863 73.2356 61.0623C73.4094 61.1274 75.7876 60.7039 77.4056 60.313C81.3585 59.3574 89.503 56.2299 91.7074 54.8181C93.0649 53.9494 93.5644 52.82 93.0757 51.7449C92.5328 50.5504 91.0342 49.5839 90.3826 50.0074C89.9699 50.2789 90.0785 50.5938 90.8387 51.3323C91.3165 51.7992 91.5446 52.1033 91.5446 52.277C91.5446 52.5594 91.1753 52.9938 90.5672 53.4499C89.6767 54.1123 85.0289 56.5882 83.096 57.4352C81.0327 58.3474 75.9396 60.0089 75.4944 59.9221C75.3967 59.9003 75.7007 59.6723 76.1894 59.3899C77.8183 58.4343 79.002 57.5004 80.9024 55.6543C81.9449 54.6335 83.2154 53.4173 83.7041 52.9395C85.7674 50.9631 87.2442 48.3351 87.9827 45.2836C88.0696 44.9253 88.1239 44.0674 88.1239 43.166C88.113 41.8521 88.0804 41.5697 87.8741 41.0267C87.3528 39.7128 86.6035 39.0721 85.0506 38.5942C84.3556 38.3771 83.9864 38.3336 82.9114 38.3445C81.7385 38.3445 81.5322 38.3771 80.8589 38.6594ZM84.2145 41.0376C84.7466 41.2765 85.1592 41.6566 85.4199 42.1452C85.7348 42.7099 85.7022 44.5126 85.3547 45.718C84.8117 47.6618 83.5955 50.2246 82.4444 51.8535C81.6299 52.9938 79.7513 54.8724 78.1332 56.1647C77.145 56.9574 73.8872 59.1945 72.5841 59.9763C72.5081 60.0198 72.204 59.7483 71.8348 59.2922C71.4981 58.8795 70.9769 58.3583 70.6837 58.1411C70.3905 57.9131 70.1516 57.685 70.1516 57.6416C70.1516 57.5981 70.2493 57.457 70.3688 57.3375C70.4882 57.2181 70.5534 57.0552 70.5208 56.9792C70.4231 56.7077 72.975 51.3974 74.3324 49.0844C76.4174 45.5117 78.2744 43.3398 80.5114 41.8412C81.9774 40.853 83.2263 40.5815 84.2145 41.0376ZM58.9664 45.3922C59.8026 45.6854 61.6053 46.5759 62.4414 47.108C64.3635 48.3351 65.5146 49.8988 66.5463 52.7223C68.0557 56.8163 68.2946 57.6633 67.9797 57.6633C67.7951 57.6633 66.7526 58.7058 66.2313 59.4117C65.9164 59.8243 65.6341 60.161 65.5798 60.161C65.4169 60.161 63.3971 58.9556 62.0613 58.0651C58.6841 55.7955 55.6109 53.2218 54.7856 51.9513C53.4281 49.888 53.8082 46.9017 55.5783 45.6854C55.8172 45.5117 56.2081 45.3053 56.4362 45.2185C56.99 45.0121 58.076 45.0881 58.9664 45.3922ZM65.7427 85.5285L67.6539 87.5049V90.4478C67.6539 92.0658 67.6105 93.3906 67.5562 93.3906C67.5128 93.3906 66.6006 92.4893 65.5472 91.3925L63.636 89.3944V86.4406C63.636 84.7466 63.6794 83.5086 63.7337 83.5303C63.788 83.5412 64.6893 84.4534 65.7427 85.5285ZM75.1469 86.4406V89.3618L73.8221 90.6541C71.6393 92.7499 70.9552 93.3906 70.8792 93.3906C70.8357 93.3906 70.8031 92.0767 70.8031 90.4586V87.5374L72.671 85.7131C73.6917 84.714 74.6039 83.8018 74.7017 83.6932C75.1252 83.2263 75.1469 83.3783 75.1469 86.4406ZM62.9301 93.2929C64.0052 94.2485 65.026 95.1824 65.2106 95.3562L65.5364 95.6711H62.5283H59.5311L57.457 93.7056C56.3167 92.6196 55.3828 91.6857 55.3828 91.6423C55.3828 91.588 56.6425 91.5446 58.1846 91.5446H60.9863L62.9301 93.2929ZM82.8896 91.6857C82.8462 91.7617 81.8906 92.6848 80.7829 93.749L78.7522 95.6711H75.7985C74.1587 95.6711 72.8664 95.6277 72.8881 95.5734C72.9099 95.4974 73.9632 94.4983 76.7758 91.9029L77.1559 91.5446H80.0662C82.401 91.5446 82.9548 91.5771 82.8896 91.6857ZM65.4821 98.6683C65.4821 98.7009 64.5481 99.7108 63.4079 100.894L61.3229 103.055H58.3583C56.7185 103.055 55.3828 103.023 55.3828 102.969C55.3828 102.925 56.3276 101.926 57.4787 100.742L59.5637 98.6031H62.5283C64.1464 98.6031 65.4821 98.6357 65.4821 98.6683ZM81.0218 100.732C82.1186 101.894 83.0417 102.903 83.0525 102.958C83.0742 103.012 81.8363 103.055 79.9576 103.045L76.8301 103.034L75.755 101.883C75.1578 101.242 74.2673 100.297 73.7678 99.776C73.2682 99.2547 72.8664 98.7769 72.8664 98.7226C72.8664 98.6357 73.8655 98.6031 75.9505 98.6031H79.0346L81.0218 100.732ZM67.6539 103.783V106.802L65.7318 108.865C64.6785 109.995 63.7771 110.939 63.7228 110.961C63.6794 110.983 63.636 109.658 63.636 108.018V105.032L65.5581 102.903C66.6223 101.731 67.5236 100.775 67.5671 100.775C67.6213 100.775 67.6539 102.132 67.6539 103.783ZM73.051 102.86L75.1469 104.956V107.964C75.1469 109.625 75.1035 110.983 75.06 110.983C75.0166 110.983 74.0392 110.071 72.8881 108.963L70.8031 106.943V103.859C70.8031 102.165 70.8357 100.775 70.8792 100.775C70.9226 100.775 71.8999 101.72 73.051 102.86Z" fill="#647F5E"/>
<path d="M70.0756 38.7246C70.043 38.8114 70.0647 38.9418 70.1299 39.0069C70.2928 39.1698 70.5968 38.92 70.51 38.7029C70.4339 38.4965 70.1625 38.5074 70.0756 38.7246Z" fill="#647F5E"/>
<path d="M69.4348 39.1047C69.3262 39.2893 69.6846 39.6042 69.8366 39.4522C69.9126 39.3761 69.9344 39.2458 69.9018 39.159C69.8258 38.9635 69.5434 38.9309 69.4348 39.1047Z" fill="#647F5E"/>
<path d="M70.043 39.8431C70.043 40.1254 70.2276 40.234 70.423 40.0711C70.6185 39.9082 70.5099 39.6367 70.2493 39.6367C70.119 39.6367 70.043 39.7127 70.043 39.8431Z" fill="#647F5E"/>
<path d="M69.4349 40.1905C69.4023 40.2557 69.4349 40.386 69.5326 40.4729C69.7281 40.6684 69.9344 40.5706 69.9344 40.2774C69.9344 40.0494 69.5652 39.9842 69.4349 40.1905Z" fill="#647F5E"/>
<path d="M70.043 40.929C70.043 41.2113 70.2276 41.3199 70.423 41.157C70.6185 40.9941 70.5099 40.7227 70.2493 40.7227C70.119 40.7227 70.043 40.7987 70.043 40.929Z" fill="#647F5E"/>
<path d="M69.4457 41.2656C69.348 41.4285 69.5977 41.7 69.7823 41.624C70.0213 41.5371 69.9778 41.157 69.728 41.157C69.6086 41.157 69.4783 41.2113 69.4457 41.2656Z" fill="#647F5E"/>
<path d="M70.043 42.0149C70.043 42.2973 70.2276 42.4059 70.423 42.243C70.6185 42.0801 70.5099 41.8086 70.2493 41.8086C70.119 41.8086 70.043 41.8846 70.043 42.0149Z" fill="#647F5E"/>
<path d="M69.4457 42.3516C69.348 42.5145 69.4892 42.6774 69.7281 42.6774C69.8584 42.6774 69.9344 42.6014 69.9344 42.4602C69.9344 42.2321 69.5761 42.1453 69.4457 42.3516Z" fill="#647F5E"/>
<path d="M70.043 43.1009C70.043 43.3072 70.2927 43.481 70.4122 43.3615C70.5642 43.1986 70.4665 42.8945 70.2602 42.8945C70.119 42.8945 70.043 42.9706 70.043 43.1009Z" fill="#647F5E"/>
<path d="M69.5 43.3832C69.3371 43.5787 69.4457 43.7633 69.7281 43.7633C69.8584 43.7633 69.9344 43.6873 69.9344 43.557C69.9344 43.2964 69.6629 43.1878 69.5 43.3832Z" fill="#647F5E"/>
<path d="M70.043 44.1977C70.043 44.3388 70.119 44.4149 70.2602 44.4149C70.4013 44.4149 70.4773 44.3388 70.4773 44.1977C70.4773 44.0565 70.4013 43.9805 70.2602 43.9805C70.119 43.9805 70.043 44.0565 70.043 44.1977Z" fill="#647F5E"/>
<path d="M69.5109 44.4583C69.3371 44.6646 69.4457 44.8492 69.728 44.8492C69.8909 44.8492 69.9452 44.7841 69.9127 44.6103C69.8692 44.3171 69.6846 44.252 69.5109 44.4583Z" fill="#647F5E"/>
<path d="M70.1841 45.0338C69.9452 45.1207 70.0213 45.5008 70.2602 45.5008C70.4013 45.5008 70.4773 45.4248 70.4773 45.2945C70.4773 45.0556 70.3796 44.9687 70.1841 45.0338Z" fill="#647F5E"/>
<path d="M69.5109 45.5442C69.3371 45.7506 69.4457 45.9352 69.728 45.9352C69.8909 45.9352 69.9452 45.87 69.9127 45.6963C69.8692 45.4031 69.6846 45.3379 69.5109 45.5442Z" fill="#647F5E"/>
<path d="M70.119 46.1198C69.9561 46.2718 70.043 46.5867 70.2493 46.5867C70.4991 46.5867 70.6185 46.337 70.4448 46.1632C70.3036 46.022 70.2167 46.0112 70.119 46.1198Z" fill="#647F5E"/>
<path d="M69.5217 46.6193C69.3588 46.8039 69.5326 47.0754 69.7715 46.9777C69.967 46.9125 69.9561 46.5759 69.7606 46.5107C69.6955 46.489 69.5869 46.5324 69.5217 46.6193Z" fill="#647F5E"/>
<path d="M70.119 47.2057C69.9561 47.3577 70.043 47.6727 70.2493 47.6727C70.4991 47.6727 70.6185 47.4229 70.4448 47.2492C70.3036 47.108 70.2167 47.0971 70.119 47.2057Z" fill="#647F5E"/>
<path d="M69.5217 47.7053C69.3588 47.8899 69.5326 48.1613 69.7715 48.0636C69.967 47.9985 69.9561 47.6618 69.7606 47.5967C69.6955 47.5749 69.5869 47.6184 69.5217 47.7053Z" fill="#647F5E"/>
<path d="M70.119 48.2917C69.9561 48.4437 70.043 48.7586 70.2493 48.7586C70.4991 48.7586 70.6185 48.5088 70.4448 48.3351C70.3036 48.1939 70.2167 48.1831 70.119 48.2917Z" fill="#647F5E"/>
<path d="M69.4674 48.7912C69.4348 48.8781 69.4457 49.0084 69.5 49.0844C69.6195 49.2799 69.9561 49.1278 69.9127 48.8998C69.8692 48.6609 69.5434 48.5849 69.4674 48.7912Z" fill="#647F5E"/>
<path d="M70.0864 49.4645C70.0104 49.6599 70.119 49.8445 70.3145 49.8445C70.5099 49.8445 70.5968 49.5731 70.4448 49.421C70.2819 49.2581 70.1516 49.269 70.0864 49.4645Z" fill="#647F5E"/>
<path d="M69.4674 49.8771C69.4348 49.964 69.4457 50.0943 69.5 50.1703C69.6195 50.3658 69.9561 50.2138 69.9127 49.9857C69.8692 49.7468 69.5434 49.6708 69.4674 49.8771Z" fill="#647F5E"/>
<path d="M70.0756 50.5612C69.9778 50.811 70.2167 50.9956 70.4231 50.8219C70.5534 50.7133 70.5642 50.6481 70.4665 50.5395C70.3036 50.3441 70.1624 50.3441 70.0756 50.5612Z" fill="#647F5E"/>
<path d="M69.4675 50.9739C69.3806 51.1911 69.6846 51.4409 69.8475 51.278C69.9996 51.1259 69.8801 50.8219 69.6738 50.8219C69.5978 50.8219 69.5 50.887 69.4675 50.9739Z" fill="#647F5E"/>
<path d="M70.0756 51.6472C70.043 51.7341 70.0647 51.8644 70.1299 51.9296C70.2928 52.0925 70.5968 51.8427 70.51 51.6255C70.4339 51.4192 70.1625 51.4301 70.0756 51.6472Z" fill="#647F5E"/>
<path d="M69.4348 52.0273C69.3262 52.2119 69.6846 52.5269 69.8366 52.3748C69.9126 52.2988 69.9344 52.1685 69.9018 52.0816C69.8258 51.8862 69.5434 51.8536 69.4348 52.0273Z" fill="#647F5E"/>
<path d="M70.043 52.7657C70.043 53.0481 70.2276 53.1567 70.423 52.9938C70.6185 52.8309 70.5099 52.5594 70.2493 52.5594C70.119 52.5594 70.043 52.6354 70.043 52.7657Z" fill="#647F5E"/>
<path d="M69.4349 53.1132C69.4023 53.1784 69.4349 53.3087 69.5326 53.3956C69.7281 53.591 69.9344 53.4933 69.9344 53.2001C69.9344 52.972 69.5652 52.9069 69.4349 53.1132Z" fill="#647F5E"/>
<path d="M69.4457 54.1883C69.348 54.3512 69.5977 54.6227 69.7823 54.5467C70.0213 54.4598 69.9778 54.0797 69.728 54.0797C69.6086 54.0797 69.4783 54.134 69.4457 54.1883Z" fill="#647F5E"/>
</g>
<defs>
<clipPath id="clip0_14_41">
<rect width="139" height="139" fill="white"/>
</clipPath>
</defs>
</svg>
